<svg xmlns="http://www.w3.org/2000/svg" xmlns:xlink="http://www.w3.org/1999/xlink" viewBox="0 0 226.19 226.19"><defs><style>.a{fill:url(#a);}.b{fill:url(#b);}</style><linearGradient id="a" x1="-20.7" y1="35.85" x2="246.88" y2="190.34" gradientUnits="userSpaceOnUse"><stop offset="0" stop-color="#a27a2c"/><stop offset="1" stop-color="#cba22e"/></linearGradient><linearGradient id="b" x1="72.88" y1="113.09" x2="153.44" y2="113.09" xlink:href="#a"/></defs><title>facebook-icon</title><path class="a" d="M226.19,226.19H0V0H226.19ZM5.57,220.62H220.62V5.57H5.57Z"/><path class="b" d="M125.24,192.65H91.82V120.82H72.88V89.08h19c0-4.84,0-14.75,0-19.9A36.49,36.49,0,0,1,95.61,53c4.6-9.22,12.5-15.29,23.49-18a54.89,54.89,0,0,1,13.55-1.45c2.51,0,5,.1,7.51.2,3,.13,10.2.84,10.5.87l2.57.26-.76,29.79h-2.7c-7,0-18.31.08-19.8.13-3.42.63-4.56,2-4.68,5.77s-.11,13.57-.1,18.45h28.25l-1.5,31.76h-26.7Zm-27.86-5.57h22.29V115.2h27l1-20.63h-28V91.8c0-.67-.06-16.44.1-21.42.21-6.4,3.29-10,9.44-11.1.28,0,.62-.11,17.88-.18l.49-19.2c-2.39-.22-5.85-.53-7.61-.6-2.47-.1-4.88-.2-7.28-.2a49.54,49.54,0,0,0-12.2,1.28c-9.47,2.37-16,7.32-19.87,15.13a31,31,0,0,0-3.15,13.72c-.05,6.91,0,22.47,0,22.63v2.79h-19v20.6H97.39Z"/></svg>
