<svg xmlns="http://www.w3.org/2000/svg" xmlns:xlink="http://www.w3.org/1999/xlink" viewBox="0 0 226.19 226.19"><defs><style>.a{fill:url(#a);}.b{fill:url(#b);}</style><linearGradient id="a" x1="-20.7" y1="35.85" x2="246.88" y2="190.34" gradientUnits="userSpaceOnUse"><stop offset="0" stop-color="#a27a2c"/><stop offset="1" stop-color="#cba22e"/></linearGradient><linearGradient id="b" x1="59.18" y1="115.03" x2="170.51" y2="115.03" xlink:href="#a"/></defs><title>pinterest-icon</title><path class="a" d="M226.19,226.19H0V0H226.19ZM5.57,220.62H220.62V5.57H5.57Z"/><path class="b" d="M85.68,186.11a3.92,3.92,0,0,1-.48,0A3.74,3.74,0,0,1,82,183c-.15-.71-.23-1.38-.31-2,0-.2,0-.4-.07-.6A96.59,96.59,0,0,1,81,159.84a69.49,69.49,0,0,1,1.75-10l1.62-6.88,5.45-23.1q1.08-4.6,2.18-9.2c0-.13.07-.26.1-.4l0-.07,0-.1c-.33-.81-.63-1.65-.89-2.51a34,34,0,0,1-1.08-5c-1-7.19.14-14.05,3.29-19.32a18.88,18.88,0,0,1,6.51-6.72,15.26,15.26,0,0,1,10.91-1.84,12.23,12.23,0,0,1,7.37,4.69A16.07,16.07,0,0,1,121,89a40.68,40.68,0,0,1-1.8,10.54c-.65,2.4-1.39,4.79-2.11,7.1l-.73,2.38-.49,1.59a60.86,60.86,0,0,0-2,7.56,9.15,9.15,0,0,0,1.18,6.47,10.17,10.17,0,0,0,8.84,4.52A12.57,12.57,0,0,0,126,129c5.65-1,9.62-5.28,12-8.72a44.61,44.61,0,0,0,6.37-15.94,66.44,66.44,0,0,0,1.26-9.22,48.26,48.26,0,0,0-.09-9.12,26,26,0,0,0-5.71-13.54,25.73,25.73,0,0,0-11.51-7.63,37.58,37.58,0,0,0-12.11-1.9,45.21,45.21,0,0,0-5.61.35A35.45,35.45,0,0,0,96,68.3,34.19,34.19,0,0,0,80.32,93.14c-.79,6.26,0,11.48,2.37,15.52a25.39,25.39,0,0,0,2.22,3.07A6.72,6.72,0,0,1,86.32,118l-1.26,5-.11.46a7.1,7.1,0,0,1-2.34,4.32,5.69,5.69,0,0,1-5.7.55,23.85,23.85,0,0,1-4.09-2.14,25.65,25.65,0,0,1-6.43-6c-3.67-4.79-6-10.94-6.87-18.26a49.38,49.38,0,0,1,9.86-35.55A55.5,55.5,0,0,1,97.08,47a68.83,68.83,0,0,1,19.85-3.08h.87a59.85,59.85,0,0,1,18.08,2.66,50.47,50.47,0,0,1,27.18,20.31,46,46,0,0,1,6.88,17.57,51.08,51.08,0,0,1,.53,10.34,77.06,77.06,0,0,1-1,9.92c-1.57,9.4-5.64,22.68-16.15,32.49a40.87,40.87,0,0,1-15.79,9.23,39.44,39.44,0,0,1-11.53,1.8,30.63,30.63,0,0,1-8-1,26.46,26.46,0,0,1-7.84-3.56,25.51,25.51,0,0,1-2.63-2c-.59,2.29-1.17,4.58-1.74,6.83q-1,3.81-1.94,7.62a56.78,56.78,0,0,1-3.24,9.39A82,82,0,0,1,96,174.2c-1.59,2.62-3.37,5.26-5.31,7.87q-.66.89-1.34,1.77l-.13.17A4.38,4.38,0,0,1,85.68,186.11ZM107.7,80a9.82,9.82,0,0,0-5,1.4,13.4,13.4,0,0,0-4.57,4.78c-2.5,4.17-3.41,9.73-2.56,15.67a28.36,28.36,0,0,0,.9,4.16c.21.69.45,1.37.71,2l0,.1a4.89,4.89,0,0,1,.46,2.1,6.32,6.32,0,0,1-.26,1.54l-.06.23q-1.1,4.59-2.17,9.19l-5.45,23.1-1.62,6.88a64.41,64.41,0,0,0-1.62,9.21,89.32,89.32,0,0,0,.36,17.56c1.58-2.18,3.05-4.39,4.37-6.56a76.54,76.54,0,0,0,4.31-8.08,51.38,51.38,0,0,0,2.92-8.48q1-3.8,1.94-7.6c1-3.93,2-8,3.09-12l.6-2.27,2.34.22h0l2.64.25L109,135c.14.22.29.44.45.65a11.19,11.19,0,0,0,1,1.2,17.76,17.76,0,0,0,2.76,2.22,20.9,20.9,0,0,0,6.2,2.81,25.09,25.09,0,0,0,6.53.83,33.89,33.89,0,0,0,9.9-1.56,35.27,35.27,0,0,0,13.62-8c9.37-8.75,13-20.78,14.46-29.33a71.7,71.7,0,0,0,.92-9.2,45.79,45.79,0,0,0-.45-9.23,40.45,40.45,0,0,0-6.06-15.46,44.89,44.89,0,0,0-24.19-18,54.3,54.3,0,0,0-16.4-2.4H117a63.24,63.24,0,0,0-18.24,2.82A49.89,49.89,0,0,0,73.84,69.67,43.84,43.84,0,0,0,65,101.21c.77,6.32,2.7,11.55,5.76,15.54a20.12,20.12,0,0,0,5,4.7A18.27,18.27,0,0,0,79,123.1l.27.09a9.59,9.59,0,0,0,.29-1.06c0-.19.09-.38.14-.57l1.26-5a1.22,1.22,0,0,0-.33-1.37,30.26,30.26,0,0,1-2.7-3.76c-3-5.12-4-11.53-3.09-19A39.74,39.74,0,0,1,93,63.59a41,41,0,0,1,16.84-5.87,50.83,50.83,0,0,1,6.3-.4,43.14,43.14,0,0,1,13.9,2.19,30.24,30.24,0,0,1,21,25.75,53.45,53.45,0,0,1,.12,10.2,72.06,72.06,0,0,1-1.37,10,50.1,50.1,0,0,1-7.21,17.92c-2.94,4.33-8,9.76-15.62,11.07a18.12,18.12,0,0,1-3.08.27,15.69,15.69,0,0,1-13.57-7.16,14.83,14.83,0,0,1-1.93-10.34,64.89,64.89,0,0,1,2.18-8.27l.48-1.56.74-2.4c.7-2.27,1.43-4.61,2.06-6.92a36.05,36.05,0,0,0,1.6-9.09,10.77,10.77,0,0,0-1.77-6.3,6.58,6.58,0,0,0-4-2.52A9.15,9.15,0,0,0,107.7,80Z"/></svg>
