<svg xmlns="http://www.w3.org/2000/svg" xmlns:xlink="http://www.w3.org/1999/xlink" viewBox="0 0 226.19 226.19"><defs><style>.a{fill:url(#a);}.b{fill:url(#b);}</style><linearGradient id="a" x1="-20.7" y1="35.85" x2="246.88" y2="190.34" gradientUnits="userSpaceOnUse"><stop offset="0" stop-color="#a27a2c"/><stop offset="1" stop-color="#cba22e"/></linearGradient><linearGradient id="b" x1="38.33" y1="114.52" x2="193.2" y2="114.52" xlink:href="#a"/></defs><title>twitter-icon</title><path class="a" d="M226.19,226.19H0V0H226.19ZM5.57,220.62H220.62V5.57H5.57Z"/><path class="b" d="M97.67,168.39a72.18,72.18,0,0,1-27.34-5.24,74.1,74.1,0,0,1-17.68-10.27c-.89-.69-4.19-3.63-7.15-6.47-6.13-5.9-6.7-7.35-6.75-8.68l-.43-1.14,1.42-1.27h0l1.85,2.08L42.78,136l-1.16,1.44.12-.15h0l1.61-2h0l0,0h0c7.67,6.2,16.67,9.44,25.12,9a37.56,37.56,0,0,0,19.58-7.06,9.87,9.87,0,0,1-5.58-4.49,7,7,0,0,1,.42-7.68,18.83,18.83,0,0,1-9.52-5.14,17.51,17.51,0,0,1-3.08-4.05c-1.63-3.24.83-5.07,1.75-5.75l.15-.11q.48-.36,1-.66a19.46,19.46,0,0,1-8-7.77c-2.18-4.06-2.52-6.66-1.1-8.41a4.18,4.18,0,0,1,3-1.35c-5.38-5-7.75-10.39-7.21-16.41l.29-3.26,3.17.81a64.11,64.11,0,0,1,10.25,3.94c1.16.52,2.26,1,3.35,1.48C80.83,80,85.42,81.95,90,84a120,120,0,0,1,12.2,6.24,48.16,48.16,0,0,1,7.66,5.92,121.9,121.9,0,0,1,7.79-16.53c3.19-5.49,7.75-12.32,14.72-16.4l4.45-2.6-.14,2.75a22,22,0,0,1,6-1.72l2.77-.37.35,2.77v.09a13.33,13.33,0,0,1,1.68-.12,5,5,0,0,1,4.17,1.69,4.08,4.08,0,0,1,.66,3.61,6.22,6.22,0,0,1-3.53,3.84,30.26,30.26,0,0,1,5.52,2.58,34.9,34.9,0,0,1,11.8,12,43.34,43.34,0,0,1,3.67,7.61c.5,1.36.94,2.78,1.31,4.23l0,.07a28.88,28.88,0,0,0,7.27.61A17.65,17.65,0,0,0,182,99.7l.47-.17a9.08,9.08,0,0,1,3-.74,3.34,3.34,0,0,1,1.74.46l2.26,1.36-1.23,2.33a15.11,15.11,0,0,1-5.15,5.81c1,0,1.94-.12,2.91-.25l7.15-.9-4.69,5.48a22.09,22.09,0,0,1-16.36,7.39H172c-.29,0-.58,0-.84,0-.35,1.15-.75,2.44-1.23,3.75a61.44,61.44,0,0,1-28.42,33.09c-10,5.68-21.56,9.17-35.41,10.67A78.53,78.53,0,0,1,97.67,168.39ZM55.55,148.07l.53.43A68.54,68.54,0,0,0,72.43,158a66.63,66.63,0,0,0,25.24,4.83,73,73,0,0,0,7.84-.43c13.08-1.42,24-4.68,33.26-10a55.88,55.88,0,0,0,25.94-30.16c.52-1.42,1-2.85,1.31-4.06l1.06-3.61,2.68.23a9.11,9.11,0,0,1,1.75,0l.5,0a18.41,18.41,0,0,0,5.11-.83,34,34,0,0,1-7.42-1.77l-7.09-2.57,7.06-2.65a13.66,13.66,0,0,1,3.46-.68,14.14,14.14,0,0,0,1.65-.23l1.13-.3a36.76,36.76,0,0,1-6.3-.81c-2.59-.56-3.35-1.74-3.84-3.72l-.09-.34c-.33-1.27-.71-2.51-1.15-3.69a37.76,37.76,0,0,0-3.2-6.63,29.4,29.4,0,0,0-9.91-10.11c-4.4-2.64-9.25-3.5-13.4-4l-10-1.19-1.93,1.32a66.91,66.91,0,0,0-3.69,5.75A128.8,128.8,0,0,0,113.59,102l-1.45,3.89-4.07-3.77A53.36,53.36,0,0,0,99.33,95a114.7,114.7,0,0,0-11.65-6c-4.51-2-9.06-4-12.92-5.64-1.15-.49-2.33-1-3.47-1.53-1.86-.84-3.77-1.7-5.66-2.42.92,4.17,4.18,8,10,11.88l6.16,4.09-7.33,1-1.9.24c-1.14.14-2.22.27-3.3.45a19,19,0,0,0,.84,1.75c2,3.66,5.67,6.13,12,8l10.29,3-10.47,2.34-1,.23a14.56,14.56,0,0,0-5,1.69A15.8,15.8,0,0,0,77.37,116c3.35,3.4,7.81,4.06,12.14,4.26l9.69.46-8.46,4.75A9.82,9.82,0,0,0,87.6,128c-.69,1-.5,1.49-.25,1.94,1.21,2.16,4.58,2.61,7.2,2.61h6.76l-4.8,4.76A43.68,43.68,0,0,1,68.77,149.8,38.27,38.27,0,0,1,55.55,148.07Z"/></svg>
