<svg xmlns="http://www.w3.org/2000/svg" xmlns:xlink="http://www.w3.org/1999/xlink" viewBox="0 0 797.09 343.79"><defs><style>.a{fill:url(#a);}.b{fill:#231f20;}</style><linearGradient id="a" x1="177.63" y1="149.81" x2="619.46" y2="149.81" gradientUnits="userSpaceOnUse"><stop offset="0" stop-color="#a27a2c"/><stop offset="1" stop-color="#cba22e"/></linearGradient></defs><title>clayton-gerard-logo</title><path class="a" d="M323.64,299.63l-1.9-1.9-144.1-144.1L328.72,2.54l71.1,71.1L473.45,0l146,146-1.9,1.9L468.38,297.09,397.28,226Zm-138.39-146L323.64,292l69.83-69.83-71.1-71.1L396,77.45,328.72,10.16Zm215.83,68.56,67.29,67.29L611.84,146,473.45,7.62,403.62,77.45l71.1,71.1ZM330,151.08l67.29,67.29,69.83-69.83L399.82,81.26Z"/><path class="b" d="M5.11,162.49A17.79,17.79,0,0,1,17.76,132a19.24,19.24,0,0,1,13.06,4.74L26.08,142a13.11,13.11,0,0,0-8.32-2.85A10.14,10.14,0,0,0,7.11,149.7a10.66,10.66,0,0,0,3,7.87,10.5,10.5,0,0,0,7.73,2.92,12.74,12.74,0,0,0,8.28-2.82l4.74,5.19a19.19,19.19,0,0,1-13.06,4.74A17.3,17.3,0,0,1,5.11,162.49Z"/><path class="b" d="M69.95,132V161h19v6.64H62.83V132Z"/><path class="b" d="M117.18,167.6,131.41,132h7.11l14.2,35.54-7.56,0L143,162.14H126.9l-2.13,5.45Zm18-26.08L129.75,155h10.67Z"/><path class="b" d="M180.23,132h8.35l8.25,11.62L205.27,132h8.16l-13,17.78V167.6h-7.11V149.81Z"/><path class="b" d="M272,132v6.64H260.13V167.6H253V138.67H241.16V132Z"/><path class="b" d="M304.85,162.49a18.32,18.32,0,1,1,12.69,5.11A17.23,17.23,0,0,1,304.85,162.49ZM317.56,161a10,10,0,0,0,7.68-3.2,12.13,12.13,0,0,0,0-15.89,10.88,10.88,0,0,0-15.41,0,12.13,12.13,0,0,0,0,15.89A10,10,0,0,0,317.56,161Z"/><path class="b" d="M364.89,167.6V132h2.37l22.29,22.29V132h7.11V167.6h-2.61L372,145.55V167.6Z"/><path class="b" d="M472.38,162.49A17.79,17.79,0,0,1,485,132a19.24,19.24,0,0,1,13.06,4.74L493.35,142a13.11,13.11,0,0,0-8.32-2.85,10.14,10.14,0,0,0-10.65,10.58,10.66,10.66,0,0,0,3,7.87,10.5,10.5,0,0,0,7.73,2.92A9.84,9.84,0,0,0,491,159v-6.09l-4.74,0v-6.64H498.1v16.6A19.19,19.19,0,0,1,485,167.6,17.3,17.3,0,0,1,472.38,162.49Z"/><path class="b" d="M529.44,167.6V132.05l26.13,0v6.64h-19v7.59h14.25v6.62H536.56V161h19v6.64Z"/><path class="b" d="M608.42,152.09l8.87,15.51h-8.16l-8.51-14.7h-6.5v14.7H587V132h15.51Q615,132,615,142.27,615,150,608.42,152.09Zm-14.3-5.83h10q4.29-.07,4.41-3.91-.12-3.51-4.34-3.65h-10Z"/><path class="b" d="M643.4,167.6,657.62,132h7.11l14.2,35.54-7.56,0-2.13-5.45H653.12L651,167.6Zm18-26.08L656,155h10.67Z"/><path class="b" d="M729.94,152.09l8.87,15.51h-8.16l-8.51-14.7h-6.5v14.7h-7.11V132H724q12.45,0,12.45,10.24Q736.49,150,729.94,152.09Zm-14.3-5.83h10q4.29-.07,4.41-3.91-.12-3.51-4.34-3.65h-10Z"/><path class="b" d="M766.79,167.6V132h13.7q16.6,0,16.6,17.81t-16.6,17.78Zm13.7-7.09q9.46,0,9.48-10.69t-9.48-10.67H773.9v21.36Z"/><path class="b" d="M248.67,331.56a5.25,5.25,0,0,1,2.55,4.19q-.24,5.18-5.54,5.49H235.37V322.91h9.73q4.63.27,4.89,5.39Q249.91,330.74,248.67,331.56Zm-9.62-1.31h5.13a2.07,2.07,0,0,0,2.27-2.29q-.06-1.34-2.24-1.42h-5.17Zm0,8.12h6a2.39,2.39,0,0,0,2.64-2.65q-.06-1.76-2.6-1.83h-6Z"/><path class="b" d="M259.84,341.23V322.91h13.47v3.42h-9.8v3.91h7.35v3.41H263.5v4.17h9.78v3.42Z"/><path class="b" d="M308.58,331.56a5.25,5.25,0,0,1,2.55,4.19q-.24,5.18-5.54,5.49H295.28V322.91H305q4.63.27,4.89,5.39Q309.81,330.74,308.58,331.56ZM299,330.25h5.13a2.07,2.07,0,0,0,2.27-2.29q-.06-1.34-2.24-1.42H299Zm0,8.12h6a2.39,2.39,0,0,0,2.64-2.65q-.06-1.76-2.6-1.83h-6Z"/><path class="b" d="M321.49,338.59a9.44,9.44,0,1,1,6.54,2.63A8.88,8.88,0,0,1,321.49,338.59Zm6.55-.79a5.15,5.15,0,0,0,4-1.65,6.25,6.25,0,0,0,0-8.19,5.61,5.61,0,0,0-7.94,0,6.25,6.25,0,0,0,0,8.19A5.18,5.18,0,0,0,328,337.81Z"/><path class="b" d="M348.63,322.9v14.91h9.78v3.42H345V322.9Z"/><path class="b" d="M366.44,341.23V322.88h7.06q8.56,0,8.56,9.18t-8.56,9.17Zm7.06-3.65q4.88,0,4.89-5.51t-4.89-5.5h-3.4v11Z"/><path class="b" d="M392.69,341.23h-.13a1.82,1.82,0,0,1-1.34-.49,1.66,1.66,0,0,1-.49-1.22,1.68,1.68,0,0,1,.49-1.23,1.77,1.77,0,0,1,1.32-.5,1.84,1.84,0,0,1,1.37.5,1.68,1.68,0,0,1,.49,1.23v.08a4.32,4.32,0,0,1-2.44,4.19l-.61-1.1A2.24,2.24,0,0,0,392.69,341.23Z"/><path class="b" d="M415.86,341.23l7.33-18.33h3.67l7.32,18.32h-3.9l-1.1-2.81h-8.31l-1.1,2.81Zm9.26-13.44-2.79,7h5.5Z"/><path class="b" d="M445.62,322.9v14.91h9.78v3.42H442V322.9Z"/><path class="b" d="M474.57,327.78l-3.67,13.44h-3.67l-4.9-18.33h3.91l3.19,12.47,3.3-12.47h3.79l3.18,12.47,3.18-12.47h3.91l-4.89,18.33h-3.67Z"/><path class="b" d="M493.55,341.23l7.33-18.33h3.67l7.32,18.32H508l-1.1-2.81h-8.31l-1.1,2.81Zm9.26-13.44-2.79,7h5.5Z"/><path class="b" d="M518.54,322.9h4.3l4.25,6,4.35-6h4.2l-6.72,9.17v9.17h-3.67v-9.17Z"/><path class="b" d="M553.29,323.51a8.54,8.54,0,0,1,2.63,1.83l-2.44,2.44a4.21,4.21,0,0,0-3.42-1.47q-2.2,0-2.81,1a1.43,1.43,0,0,0,0,1.77,4.82,4.82,0,0,0,2.81,1.1,9.11,9.11,0,0,1,4.22,1.53,4.59,4.59,0,0,1,1.89,4.09,4.7,4.7,0,0,1-2,3.79,7.41,7.41,0,0,1-4.71,1.59,10.85,10.85,0,0,1-4.27-.73,9.27,9.27,0,0,1-2.93-2l2.44-2.44a5.81,5.81,0,0,0,4.16,1.71q2.44,0,3-1a1.94,1.94,0,0,0,0-2.08q-.6-1-3-1.28a9.84,9.84,0,0,1-4-1.34,4.06,4.06,0,0,1-1.83-3.79,4.57,4.57,0,0,1,2.08-3.91,7.34,7.34,0,0,1,4.28-1.47A10.24,10.24,0,0,1,553.29,323.51Z"/></svg>
