<svg xmlns="http://www.w3.org/2000/svg" xmlns:xlink="http://www.w3.org/1999/xlink" viewBox="0 0 746.05 505.94"><defs><style>.a{fill:#231f20;}.b{fill:url(#a);}</style><linearGradient id="a" y1="252.97" x2="746.05" y2="252.97" gradientUnits="userSpaceOnUse"><stop offset="0" stop-color="#a27a2c"/><stop offset="1" stop-color="#cba22e"/></linearGradient></defs><title>clayton-gerard-logo-alt</title><path class="a" d="M335.11,271.84a26.38,26.38,0,0,1,18.76-45.16,28.53,28.53,0,0,1,19.37,7l-7,7.7a19.44,19.44,0,0,0-12.34-4.22q-7.1,0-11.44,4.43a15.33,15.33,0,0,0-4.34,11.25q0,7.35,4.39,11.67t11.46,4.32a18.9,18.9,0,0,0,12.27-4.18l7,7.7a28.45,28.45,0,0,1-19.37,7A25.66,25.66,0,0,1,335.11,271.84Z"/><path class="a" d="M382.12,271.84a26.38,26.38,0,0,1,18.76-45.16,28.53,28.53,0,0,1,19.37,7l-7,7.7a19.44,19.44,0,0,0-12.34-4.22q-7.1,0-11.44,4.43a15.33,15.33,0,0,0-4.34,11.25q0,7.35,4.39,11.67t11.46,4.32q5.7,0,8.75-2.25v-9l-7,0v-9.84h17.58v24.61a28.45,28.45,0,0,1-19.37,7A25.66,25.66,0,0,1,382.12,271.84Z"/><path class="b" d="M246.54,505.94l-3.22-3.22L0,259.4,255.12,4.29,375.17,124.34,499.51,0,746.05,246.54l-3.22,3.22-251.9,251.9L370.88,381.6ZM12.86,259.4,246.54,493.08,364.45,375.17,244.4,255.12,368.74,130.77,255.12,17.15ZM377.31,375.17,490.94,488.79,733.19,246.54,499.51,12.86,381.6,130.77,501.65,250.83ZM257.26,255.12,370.88,368.74,488.79,250.83,375.17,137.2Z"/></svg>
