<svg xmlns="http://www.w3.org/2000/svg" xmlns:xlink="http://www.w3.org/1999/xlink" viewBox="0 0 791.14 341.23"><defs><style>.a{fill:url(#a);}.b{fill:#fff;}</style><linearGradient id="a" x1="176.31" y1="148.7" x2="614.84" y2="148.7" gradientUnits="userSpaceOnUse"><stop offset="0" stop-color="#a27a2c"/><stop offset="1" stop-color="#cba22e"/></linearGradient></defs><title>clayton-gerard-logo-light</title><path class="a" d="M321.22,297.39l-1.89-1.89-143-143,150-150,70.57,70.57L469.92,0,614.84,144.92l-1.89,1.89L464.88,294.87,394.31,224.3ZM183.87,152.48,321.22,289.83l69.31-69.31L320,150l73.09-73.09L326.26,10.08Zm214.22,68,66.79,66.79,142.4-142.4L469.92,7.56,400.61,76.87l70.57,70.57ZM327.52,150l66.79,66.79,69.31-69.31L396.83,80.65Z"/><path class="b" d="M5.07,161.27A17.66,17.66,0,0,1,17.63,131a19.1,19.1,0,0,1,13,4.71l-4.71,5.15a13,13,0,0,0-8.26-2.82,10.06,10.06,0,0,0-10.57,10.5A10.58,10.58,0,0,0,10,156.39a10.42,10.42,0,0,0,7.67,2.89,12.65,12.65,0,0,0,8.21-2.8l4.71,5.15a19,19,0,0,1-13,4.71A17.17,17.17,0,0,1,5.07,161.27Z"/><path class="b" d="M69.43,131v28.71H88.25v6.59H62.37V131Z"/><path class="b" d="M116.31,166.35,130.43,131h7.06l14.1,35.28-7.51,0L142,160.93H126l-2.12,5.41Zm17.84-25.89-5.37,13.41h10.59Z"/><path class="b" d="M178.88,131h8.28l8.19,11.53L203.73,131h8.1L198.89,148.7v17.65h-7.06V148.7Z"/><path class="b" d="M270,131v6.59H258.19v28.71h-7.06V137.64H239.36V131Z"/><path class="b" d="M302.58,161.27a18.18,18.18,0,1,1,12.59,5.07A17.1,17.1,0,0,1,302.58,161.27Zm12.61-1.52a9.92,9.92,0,0,0,7.63-3.18,12,12,0,0,0,0-15.77,10.8,10.8,0,0,0-15.3,0,12,12,0,0,0,0,15.77A10,10,0,0,0,315.19,159.76Z"/><path class="b" d="M362.16,166.35V131h2.35l22.12,22.12V131h7.06v35.3h-2.59l-21.89-21.89v21.89Z"/><path class="b" d="M468.86,161.27A17.66,17.66,0,0,1,481.41,131a19.1,19.1,0,0,1,13,4.71l-4.71,5.15a13,13,0,0,0-8.26-2.82,10.06,10.06,0,0,0-10.57,10.5,10.58,10.58,0,0,0,2.94,7.81,10.42,10.42,0,0,0,7.67,2.89,9.77,9.77,0,0,0,5.86-1.51v-6l-4.71,0v-6.59h11.77v16.47a19,19,0,0,1-13,4.71A17.17,17.17,0,0,1,468.86,161.27Z"/><path class="b" d="M525.49,166.35V131.07l25.93,0v6.59H532.55v7.53H546.7v6.57H532.55v8h18.83v6.59Z"/><path class="b" d="M603.88,151l8.8,15.39h-8.1l-8.45-14.59h-6.45v14.59h-7.06V131H598q12.36,0,12.36,10.17Q610.38,148.86,603.88,151Zm-14.19-5.79h9.88q4.26-.07,4.38-3.88-.12-3.48-4.31-3.62h-10Z"/><path class="b" d="M638.6,166.35,652.72,131h7.06l14.1,35.28-7.51,0-2.12-5.41h-16l-2.12,5.41Zm17.84-25.89-5.37,13.41h10.59Z"/><path class="b" d="M724.49,151l8.8,15.39h-8.1l-8.45-14.59H710.3v14.59h-7.06V131h15.39Q731,131,731,141.21,731,148.86,724.49,151Zm-14.19-5.79h9.88q4.26-.07,4.38-3.88-.12-3.48-4.31-3.62h-10Z"/><path class="b" d="M761.07,166.35V131h13.6q16.47,0,16.47,17.67t-16.47,17.65Zm13.6-7q9.39,0,9.41-10.61t-9.41-10.59h-6.54v21.2Z"/><path class="b" d="M246.82,329.09a5.21,5.21,0,0,1,2.54,4.16q-.24,5.14-5.5,5.45H233.62V320.5h9.66q4.6.27,4.85,5.35Q248,328.27,246.82,329.09Zm-9.55-1.3h5.1a2.05,2.05,0,0,0,2.26-2.27q-.06-1.33-2.22-1.41h-5.13Zm0,8.05h5.94a2.38,2.38,0,0,0,2.62-2.63q-.06-1.75-2.58-1.82h-6Z"/><path class="b" d="M257.9,338.68V320.5h13.37v3.4h-9.73v3.88h7.29v3.38h-7.29v4.14h9.7v3.4Z"/><path class="b" d="M306.28,329.09a5.21,5.21,0,0,1,2.54,4.16q-.24,5.14-5.5,5.45H293.08V320.5h9.66q4.6.27,4.85,5.35Q307.5,328.27,306.28,329.09Zm-9.55-1.3h5.1a2.05,2.05,0,0,0,2.26-2.27q-.06-1.33-2.22-1.41h-5.13Zm0,8.05h5.94a2.38,2.38,0,0,0,2.62-2.63q-.06-1.75-2.58-1.82h-6Z"/><path class="b" d="M319.09,336.07a9.37,9.37,0,1,1,6.49,2.61A8.81,8.81,0,0,1,319.09,336.07Zm6.5-.78a5.11,5.11,0,0,0,3.93-1.64,6.2,6.2,0,0,0,0-8.13,5.56,5.56,0,0,0-7.88,0,6.2,6.2,0,0,0,0,8.13A5.14,5.14,0,0,0,325.6,335.28Z"/><path class="b" d="M346,320.48v14.8h9.7v3.4H342.39v-18.2Z"/><path class="b" d="M363.7,338.68V320.47h7q8.49,0,8.49,9.11t-8.49,9.1Zm7-3.63q4.84,0,4.85-5.47t-4.85-5.46h-3.37v10.93Z"/><path class="b" d="M389.76,338.68h-.13a1.81,1.81,0,0,1-1.33-.49,1.65,1.65,0,0,1-.49-1.21,1.67,1.67,0,0,1,.49-1.22,1.76,1.76,0,0,1,1.31-.49,1.82,1.82,0,0,1,1.36.49,1.67,1.67,0,0,1,.49,1.22v.08a4.29,4.29,0,0,1-2.43,4.16l-.61-1.09A2.22,2.22,0,0,0,389.76,338.68Z"/><path class="b" d="M412.75,338.68l7.28-18.2h3.64l7.27,18.18h-3.87L426,335.89h-8.25l-1.09,2.79Zm9.19-13.34-2.77,6.91h5.46Z"/><path class="b" d="M442.3,320.48v14.8H452v3.4H438.66v-18.2Z"/><path class="b" d="M471,325.34l-3.64,13.34h-3.64l-4.86-18.2h3.88l3.17,12.37,3.27-12.37H473l3.15,12.37,3.15-12.37h3.88l-4.85,18.2h-3.64Z"/><path class="b" d="M489.86,338.68l7.28-18.2h3.64L508,338.67h-3.87l-1.09-2.79h-8.25l-1.09,2.79Zm9.19-13.34-2.77,6.91h5.46Z"/><path class="b" d="M514.67,320.48h4.27l4.22,5.94,4.32-5.94h4.17l-6.67,9.1v9.1h-3.64v-9.1Z"/><path class="b" d="M549.16,321.09a8.49,8.49,0,0,1,2.61,1.82l-2.43,2.43a4.18,4.18,0,0,0-3.4-1.46q-2.18,0-2.79,1a1.42,1.42,0,0,0,0,1.76,4.79,4.79,0,0,0,2.79,1.09,9,9,0,0,1,4.18,1.52,4.56,4.56,0,0,1,1.88,4.06,4.67,4.67,0,0,1-2,3.76,7.36,7.36,0,0,1-4.68,1.58,10.78,10.78,0,0,1-4.23-.73,9.16,9.16,0,0,1-2.91-1.94l2.43-2.43a5.77,5.77,0,0,0,4.12,1.7q2.42,0,3-1a1.92,1.92,0,0,0,0-2.06q-.6-1-3-1.27a9.77,9.77,0,0,1-4-1.33,4,4,0,0,1-1.82-3.76,4.53,4.53,0,0,1,2.07-3.88,7.28,7.28,0,0,1,4.25-1.46A10.15,10.15,0,0,1,549.16,321.09Z"/></svg>
